<svg t="1708268036883" class="icon" viewBox="0 0 1024 1024" version="1.1" xmlns="http://www.w3.org/2000/svg" p-id="2510" width="200" height="200"><path d="M838.953125 918.58203125H185.046875a83.84765625 83.84765625 0 0 1-83.3203125-83.84765625V181.35546875A83.84765625 83.84765625 0 0 1 185.046875 97.5078125h244.6875a26.89453125 26.89453125 0 0 1 26.3671875 26.3671875V306.3359375a26.3671875 26.3671875 0 0 1-26.3671875 26.3671875 26.3671875 26.3671875 0 0 1-26.3671875-26.3671875v-158.203125H185.046875a31.11328125 31.11328125 0 0 0-30.5859375 31.11328125v655.48828125a31.11328125 31.11328125 0 0 0 30.5859375 31.11328125h653.90625a31.11328125 31.11328125 0 0 0 30.5859375-31.11328125V310.5546875a26.3671875 26.3671875 0 0 1 26.3671875-26.3671875 26.3671875 26.3671875 0 0 1 26.3671875 26.3671875v524.1796875a83.84765625 83.84765625 0 0 1-83.3203125 83.84765625z" p-id="2511"></path><path d="M895.90625 336.921875a26.89453125 26.89453125 0 0 1-26.3671875-26.3671875V238.8359375a30.5859375 30.5859375 0 0 0-30.5859375-31.11328125H437.1171875a26.3671875 26.3671875 0 0 1-26.3671875-26.3671875 26.3671875 26.3671875 0 0 1 26.3671875-26.3671875h401.8359375a83.84765625 83.84765625 0 0 1 83.3203125 83.84765625v71.71875a26.3671875 26.3671875 0 0 1-26.3671875 26.3671875z" p-id="2512"></path><path d="M895.90625 336.921875H142.859375a26.3671875 26.3671875 0 0 1-26.3671875-26.3671875 26.3671875 26.3671875 0 0 1 26.3671875-26.3671875h753.046875a26.3671875 26.3671875 0 0 1 26.3671875 26.3671875 26.3671875 26.3671875 0 0 1-26.3671875 26.3671875z" p-id="2513"></path><path d="M666.51171875 336.921875a26.3671875 26.3671875 0 0 1-26.3671875-26.3671875V181.35546875a26.3671875 26.3671875 0 0 1 52.734375 0v129.19921875a26.3671875 26.3671875 0 0 1-26.3671875 26.3671875z" p-id="2514"></path></svg>