<svg t="1707209484411" class="icon" viewBox="0 0 1024 1024" version="1.1" xmlns="http://www.w3.org/2000/svg" p-id="3086" width="200" height="200"><path d="M170.666667 298.666667a42.666667 42.666667 0 0 1 42.666666-42.666667h42.666667a42.666667 42.666667 0 0 1 0 85.333333H213.333333a42.666667 42.666667 0 0 1-42.666666-42.666666z m213.333333 0a42.666667 42.666667 0 0 1 42.666667-42.666667h384a42.666667 42.666667 0 1 1 0 85.333333h-384a42.666667 42.666667 0 0 1-42.666667-42.666666z m-213.333333 213.333333a42.666667 42.666667 0 0 1 42.666666-42.666667h42.666667a42.666667 42.666667 0 1 1 0 85.333334H213.333333a42.666667 42.666667 0 0 1-42.666666-42.666667z m213.333333 0a42.666667 42.666667 0 0 1 42.666667-42.666667h384a42.666667 42.666667 0 1 1 0 85.333334h-384a42.666667 42.666667 0 0 1-42.666667-42.666667z m-213.333333 213.333333a42.666667 42.666667 0 0 1 42.666666-42.666666h42.666667a42.666667 42.666667 0 1 1 0 85.333333H213.333333a42.666667 42.666667 0 0 1-42.666666-42.666667z m213.333333 0a42.666667 42.666667 0 0 1 42.666667-42.666666h384a42.666667 42.666667 0 1 1 0 85.333333h-384a42.666667 42.666667 0 0 1-42.666667-42.666667z" p-id="3087"></path></svg>