<svg t="1708268044525" class="icon" viewBox="0 0 1024 1024" version="1.1" xmlns="http://www.w3.org/2000/svg" p-id="2651" width="200" height="200"><path d="M170.666667 426.666667v341.333333h682.666666V256H170.666667v85.333333h554.666666a42.666667 42.666667 0 0 1 0 85.333334H170.666667z m725.333333 426.666666H128a42.666667 42.666667 0 0 1-42.666667-42.666666V213.333333a42.666667 42.666667 0 0 1 42.666667-42.666666h768a42.666667 42.666667 0 0 1 42.666667 42.666666v597.333334a42.666667 42.666667 0 0 1-42.666667 42.666666zM298.666667 682.666667a42.666667 42.666667 0 0 1 0-85.333334h85.333333a42.666667 42.666667 0 0 1 0 85.333334H298.666667z m213.333333 0a42.666667 42.666667 0 0 1 0-85.333334h42.666667a42.666667 42.666667 0 0 1 0 85.333334h-42.666667z" p-id="2652"></path></svg>