<svg t="1707209285953" class="icon" viewBox="0 0 1137 1024" version="1.1" xmlns="http://www.w3.org/2000/svg" p-id="1968" width="200" height="200"><path d="M739.555556 113.777778H398.222222a398.222222 398.222222 0 1 0 0 796.444444h341.333334a398.222222 398.222222 0 1 0 0-796.444444z m0 682.666666H398.222222c-156.842667 0-284.444444-127.601778-284.444444-284.444444s127.601778-284.444444 284.444444-284.444444h341.333334c156.842667 0 284.444444 127.601778 284.444444 284.444444s-127.601778 284.444444-284.444444 284.444444z" p-id="1969"></path><path d="M568.888889 512a170.666667 170.666667 0 1 1-341.333333 0 170.666667 170.666667 0 0 1 341.333333 0z" p-id="1970"></path></svg>